# xmcd
#
# Track frame offsets: 
#        150
#        10965
#        25100
#        37569
#        47498
#        59137
#        71034
#        82969
#        94715
#        107271
#        117966
#        128889
#        141392
#        153011
#        165618
#
# Disc length: 2303 seconds
#
# Revision: 6
# Processed by: cddbd v1.5.2PL0 Copyright (c) Steve Scherf et al.
# Submitted via: ExactAudioCopy v0.99pb5
#
DISCID=b608fd0f
DTITLE=Various Artist - Classic Country - TL 626-16 - 1961 - 1965 - CD 1
DYEAR=2001
DGENRE=Country
TTITLE0=Buck Owens and His Buckaroos - Act naturally
TTITLE1=Jim Reeves - This is it
TTITLE2=Hank Snow - I've been everywhere
TTITLE3=Eddy Arnold - What's he doing in my world
TTITLE4=Wanda Jackson - In the middle of a heartache
TTITLE5=Ernest Ashworth - Talk back trembling lips
TTITLE6=Bobby Edwards with The Four Young Men - You're the reason
TTITLE7=George Jones and Melba Montgomery - We must have been out of our
TTITLE7=minds
TTITLE8=Hank Thompson - Oklahoma hills
TTITLE9=Leroy Van Dyke - If a woman answers hang up the phone
TTITLE10=Dave Dudley - Truck drivin' son-of-a-gun
TTITLE11=Bobby Bare - Four strong winds
TTITLE12=Ernest Tubb And His Texas Troubadours - Thanks a lot
TTITLE13=Bill Anderson - Still
TTITLE14=Lester Flatt, Earl Scruggs and The Foggy Mountain Boys - The ba
TTITLE14=llad of Jed Clampett
EXTD=
EXTT0=
EXTT1=
EXTT2=
EXTT3=
EXTT4=
EXTT5=
EXTT6=
EXTT7=
EXTT8=
EXTT9=
EXTT10=
EXTT11=
EXTT12=
EXTT13=
EXTT14=
PLAYORDER=
